<?xml version="1.0" encoding="UTF-8"?>
<svg version="1.1" xmlns="http://www.w3.org/2000/svg" width="1160" height="980">
<path d="M0 0 C0.86625 0.41765625 1.7325 0.8353125 2.625 1.265625 C10.27209154 5.1336306 16.78513992 10.23499408 23.36962891 15.66064453 C24.48772492 16.57916426 25.61560759 17.48586146 26.75146484 18.38232422 C28.20420014 19.54391655 29.60712048 20.76727002 31 22 C31 22.66 31 23.32 31 24 C31.99 24.33 32.98 24.66 34 25 C34 25.66 34 26.32 34 27 C34.66 27 35.32 27 36 27 C40.82967363 31.68030228 45.37011135 37.33577815 49 43 C49 43.66 49 44.32 49 45 C49.66 45 50.32 45 51 45 C53.31020136 47.93288305 55.17370381 51.19551724 57.125 54.375 C58.00297241 55.80344238 58.00297241 55.80344238 58.89868164 57.26074219 C64.0922398 65.8748679 68.33174465 74.64552132 72 84 C72.27392578 84.68449219 72.54785156 85.36898437 72.83007812 86.07421875 C79.24756208 102.31122634 83.13996878 119.65412747 85 137 C85.11085938 138.01320312 85.22171875 139.02640625 85.3359375 140.0703125 C90.26044592 193.17514655 76.14321687 256.00442098 46.78027344 300.93310547 C43.01030986 306.76997938 40.66565422 310.97873868 41 318 C41.93243871 320.57951684 41.93243871 320.57951684 44 322 C53.74909588 324.59042404 64.49991117 323.23361396 74.30395508 321.59228516 C84.53580317 319.9755292 94.74934675 319.04652181 105.07421875 318.2734375 C107.00115413 318.12363801 108.92803762 317.97316969 110.85487366 317.82209778 C114.97753121 317.50016105 119.10049025 317.1825647 123.22375488 316.86849976 C129.80958002 316.36673206 136.39458593 315.85473269 142.97949219 315.34106445 C149.97376939 314.79592159 156.96809335 314.2514189 163.962677 313.71022034 C187.85309331 311.86164043 211.7402821 309.97303441 235.62657833 308.07201767 C242.92718108 307.49101973 250.22795583 306.91225839 257.52889347 306.3354845 C278.47860212 304.67942991 299.42346879 303.00918523 320.34811401 301.0597229 C334.12783272 299.78315604 347.92197123 298.70375813 361.7182045 297.62396145 C400.79991046 294.5645688 439.7932568 291.19901994 478.74407291 286.75080872 C492.82666455 285.14293834 506.91181013 283.55805878 521 282 C522.0378363 281.88489075 523.07567261 281.76978149 524.1449585 281.65118408 C561.87832278 277.50004351 602.72692714 274.75304503 640 283 C640.77601562 283.1654834 641.55203125 283.3309668 642.3515625 283.50146484 C646.65102276 284.44630591 650.81845201 285.61131308 655 287 C656.62808594 287.53560547 656.62808594 287.53560547 658.2890625 288.08203125 C674.91424137 294.01392681 691.00342845 304.04591532 702 318 C702.62003906 318.69996094 703.24007813 319.39992188 703.87890625 320.12109375 C718.10633077 336.63158835 725.160335 357.00927475 725.25 378.5625 C725.270625 379.77486328 725.29125 380.98722656 725.3125 382.23632812 C725.35959675 393.21575779 723.32830567 403.00034224 718.8125 413 C718.50989258 413.67514648 718.20728516 414.35029297 717.89550781 415.04589844 C711.42977794 429.02961105 701.2535205 441.61432472 689 451 C688.34 451 687.68 451 687 451 C687 451.66 687 452.32 687 453 C648.06125352 475.69506821 606.5623727 483.39010691 562 487 C561.07263031 487.07659851 560.14526062 487.15319702 559.18978882 487.2321167 C542.51127129 488.59541609 525.83347461 489.4570842 509.11534977 490.12172699 C487.76357265 490.97212351 466.44864753 491.88919204 445.1875 494.125 C444.36665924 494.21126648 443.54581848 494.29753296 442.70010376 494.38641357 C434.55764101 495.1804173 434.55764101 495.1804173 426.50097656 496.53442383 C423.34190398 497.12250968 420.27833184 497.21960383 417.06640625 497.31640625 C416.39966888 497.33723267 415.73293152 497.35805908 415.04598999 497.3795166 C412.88493636 497.44525445 410.72376734 497.50424554 408.5625 497.5625 C407.82911407 497.58367889 407.09572815 497.60485779 406.34011841 497.62667847 C393.89170607 497.9859324 381.45367216 498.11987492 369 498 C369.0446323 501.02160695 369.23410104 503.21360965 371.40527344 505.44287109 C373.35159753 506.93182482 375.34292088 508.31790536 377.375 509.6875 C400.92548173 526.50479184 413.67977435 548.6929807 419.578125 576.75 C423.14244502 604.20846534 416.11379663 629.55984603 399.625 651.6875 C391.32552909 661.93099113 381.38800077 670.47926186 370.39453125 677.71484375 C369.66621094 678.20082031 368.93789063 678.68679688 368.1875 679.1875 C367.56230469 679.57292969 366.93710937 679.95835937 366.29296875 680.35546875 C364.0913077 683.15576875 364.63202975 685.56322934 365 689 C366.35733029 692.47640423 366.35733029 692.47640423 368.25 695.9375 C378.92832796 717.2402522 379.85306206 742.6946479 372.875 765.25 C369.1470892 776.32488828 363.75917557 787.45763449 357 797 C356.34 797 355.68 797 355 797 C354.72027344 797.59425781 354.44054687 798.18851563 354.15234375 798.80078125 C347.01035033 812.43109412 330.3440993 821.49749421 317 828 C316.39777498 835.92929611 317.46138897 843.05922395 319 850.8125 C323.26089689 872.8336151 320.81235755 894.35353498 308.60546875 913.65234375 C304.54929821 919.58362963 300.22482732 925.05016359 295 930 C294.2575 930.78375 293.515 931.5675 292.75 932.375 C286.18229639 938.64417163 278.91291053 943.58816797 271 948 C270.18917969 948.47050781 269.37835937 948.94101562 268.54296875 949.42578125 C250.27361571 959.34954403 226.91553281 966.57565687 206 966 C206 966.99 206 967.98 206 969 C190.82 969 175.64 969 160 969 C160 968.01 160 967.02 160 966 C159.41371826 966.02537842 158.82743652 966.05075684 158.22338867 966.0769043 C151.32925158 966.24232038 145.03339227 965.28473658 138.3125 963.8125 C136.7200647 963.46650757 136.7200647 963.46650757 135.09545898 963.11352539 C120.69830245 959.90111803 108.18845683 954.895037 95.00415039 948.27709961 C81.55704824 941.58918479 71.32503558 939.9997276 56.46899414 942.06787109 C-6.34774456 950.66757931 -74.38686447 940.0215448 -133 917 C-134.23073242 916.52336914 -134.23073242 916.52336914 -135.48632812 916.03710938 C-150.54939681 910.13983075 -164.19376112 902.37942273 -178 894 C-179.55763938 893.06741454 -181.11615003 892.13628177 -182.67578125 891.20703125 C-192.1624261 885.5501225 -192.1624261 885.5501225 -195.640625 883.265625 C-199.60478828 881.13915331 -202.76554287 881.8457278 -207 883 C-212.58668716 885.33023662 -217.82059075 888.14412736 -222.8125 891.5625 C-240.26893364 902.75621312 -266.31388453 904.69838731 -286.21972656 900.81787109 C-310.34198982 895.47171639 -330.21110407 882.84359228 -348 866 C-348.81082031 865.24203125 -349.62164062 864.4840625 -350.45703125 863.703125 C-361.29159529 853.26099399 -369.96559339 840.90448339 -378.74389648 828.73779297 C-379.60221468 827.55032767 -380.46660379 826.36723309 -381.33618164 825.18798828 C-383.79618307 821.82128626 -385.89330476 818.53082781 -387.6875 814.75 C-389.45301135 811.0973732 -391.25517727 807.49945809 -393.21875 803.94921875 C-411.99906984 769.80765746 -422.80370074 732.28655991 -428.4375 693.875 C-428.60145264 692.76882324 -428.76540527 691.66264648 -428.93432617 690.52294922 C-429.95756162 682.98337983 -430.17467159 675.60326038 -430 668 C-430.99 668 -431.98 668 -433 668 C-433 650.51 -433 633.02 -433 615 C-432.01 615 -431.02 615 -430 615 C-430.01885254 614.33790527 -430.03770508 613.67581055 -430.05712891 612.99365234 C-430.16820767 606.03719208 -429.5582083 599.47407602 -428.375 592.625 C-428.1109436 591.07449951 -428.1109436 591.07449951 -427.84155273 589.49267578 C-425.98037013 579.09451944 -423.21916073 569.0514884 -420 559 C-419.79262207 558.33822754 -419.58524414 557.67645508 -419.37158203 556.99462891 C-409.59079327 526.13750267 -390.25069272 500.26107609 -361.45117188 485.13818359 C-355.14358516 481.93862278 -348.90231714 479.60783388 -342 478 C-340.80117188 477.70351563 -339.60234375 477.40703125 -338.3671875 477.1015625 C-325.06993192 474.13426922 -311.54600463 474.70802798 -298 475 C-291.55455387 461.07930656 -291.55455387 461.07930656 -285.9375 446.8125 C-276.42185625 420.65841063 -261.08036332 397.00398415 -244.88305664 374.53076172 C-244.40473389 373.86447754 -243.92641113 373.19819336 -243.43359375 372.51171875 C-242.80022095 371.63713013 -242.80022095 371.63713013 -242.15405273 370.74487305 C-240.94059339 368.99341316 -240.94059339 368.99341316 -239.9934082 366.92822266 C-238.53373078 364.0949633 -236.26095503 362.23120562 -234 360 C-232.38096466 357.95476165 -230.80289393 355.90574848 -229.25 353.8125 C-225.4597479 348.78299036 -221.43911068 344.1065694 -217.16015625 339.48046875 C-214.85003729 336.8278005 -212.83610807 334.06355777 -210.8125 331.1875 C-207.89509708 327.06745959 -204.92724985 324.1908905 -201 321 C-198.84059174 318.38597948 -196.77433646 315.71980712 -194.734375 313.01171875 C-194.16203125 312.34785156 -193.5896875 311.68398438 -193 311 C-192.34 311 -191.68 311 -191 311 C-190.7525 310.44828125 -190.505 309.8965625 -190.25 309.328125 C-188.75765526 306.54863293 -186.96327477 304.2185293 -185 301.75 C-184.29875 300.85796875 -183.5975 299.9659375 -182.875 299.046875 C-181.946875 298.03367187 -181.946875 298.03367187 -181 297 C-180.34 297 -179.68 297 -179 297 C-178.690625 296.38125 -178.38125 295.7625 -178.0625 295.125 C-177.375 293.75 -176.6875 292.375 -176 291 C-175.34 291 -174.68 291 -174 291 C-173.64228516 290.17435547 -173.64228516 290.17435547 -173.27734375 289.33203125 C-171.69283126 286.4392057 -169.72030307 284.18364659 -167.5625 281.6875 C-125.34891473 231.90404949 -105.66568954 171.75113067 -108.58618164 106.81933594 C-108.97416502 97.87334694 -109.14725344 88.93944897 -109.17825317 79.98602295 C-109.18430911 78.48067265 -109.19399814 76.97533155 -109.20773315 75.47003174 C-109.38382491 54.9398728 -106.36957731 36.37921103 -95 19 C-94.37351562 17.97519531 -94.37351562 17.97519531 -93.734375 16.9296875 C-92.6875 15.25 -92.6875 15.25 -91 13 C-90.34 13 -89.68 13 -89 13 C-88.7834375 12.43152344 -88.566875 11.86304687 -88.34375 11.27734375 C-83.89049529 3.73011266 -72.90808714 -1.81804778 -65 -5 C-64.04609375 -5.391875 -63.0921875 -5.78375 -62.109375 -6.1875 C-41.84925398 -13.23449861 -18.70123265 -9.69271204 0 0 Z " fill="#FDFDFD" transform="translate(433,11)"/>
<path d="M0 0 C0.86625 0.41765625 1.7325 0.8353125 2.625 1.265625 C10.27209154 5.1336306 16.78513992 10.23499408 23.36962891 15.66064453 C24.48772492 16.57916426 25.61560759 17.48586146 26.75146484 18.38232422 C28.20420014 19.54391655 29.60712048 20.76727002 31 22 C31 22.66 31 23.32 31 24 C31.99 24.33 32.98 24.66 34 25 C34 25.66 34 26.32 34 27 C34.66 27 35.32 27 36 27 C40.82967363 31.68030228 45.37011135 37.33577815 49 43 C49 43.66 49 44.32 49 45 C49.66 45 50.32 45 51 45 C53.31020136 47.93288305 55.17370381 51.19551724 57.125 54.375 C58.00297241 55.80344238 58.00297241 55.80344238 58.89868164 57.26074219 C64.0922398 65.8748679 68.33174465 74.64552132 72 84 C72.27392578 84.68449219 72.54785156 85.36898437 72.83007812 86.07421875 C79.24756208 102.31122634 83.13996878 119.65412747 85 137 C85.11085938 138.01320312 85.22171875 139.02640625 85.3359375 140.0703125 C90.26044592 193.17514655 76.14321687 256.00442098 46.78027344 300.93310547 C43.01030986 306.76997938 40.66565422 310.97873868 41 318 C41.93243871 320.57951684 41.93243871 320.57951684 44 322 C53.74909588 324.59042404 64.49991117 323.23361396 74.30395508 321.59228516 C84.53580317 319.9755292 94.74934675 319.04652181 105.07421875 318.2734375 C107.00115413 318.12363801 108.92803762 317.97316969 110.85487366 317.82209778 C114.97753121 317.50016105 119.10049025 317.1825647 123.22375488 316.86849976 C129.80958002 316.36673206 136.39458593 315.85473269 142.97949219 315.34106445 C149.97376939 314.79592159 156.96809335 314.2514189 163.962677 313.71022034 C187.85309331 311.86164043 211.7402821 309.97303441 235.62657833 308.07201767 C242.92718108 307.49101973 250.22795583 306.91225839 257.52889347 306.3354845 C278.47860212 304.67942991 299.42346879 303.00918523 320.34811401 301.0597229 C334.12783272 299.78315604 347.92197123 298.70375813 361.7182045 297.62396145 C400.79991046 294.5645688 439.7932568 291.19901994 478.74407291 286.75080872 C492.82666455 285.14293834 506.91181013 283.55805878 521 282 C522.0378363 281.88489075 523.07567261 281.76978149 524.1449585 281.65118408 C561.87832278 277.50004351 602.72692714 274.75304503 640 283 C640.77601562 283.1654834 641.55203125 283.3309668 642.3515625 283.50146484 C646.65102276 284.44630591 650.81845201 285.61131308 655 287 C656.62808594 287.53560547 656.62808594 287.53560547 658.2890625 288.08203125 C674.91424137 294.01392681 691.00342845 304.04591532 702 318 C702.62003906 318.69996094 703.24007813 319.39992188 703.87890625 320.12109375 C718.10633077 336.63158835 725.160335 357.00927475 725.25 378.5625 C725.270625 379.77486328 725.29125 380.98722656 725.3125 382.23632812 C725.35959675 393.21575779 723.32830567 403.00034224 718.8125 413 C718.50989258 413.67514648 718.20728516 414.35029297 717.89550781 415.04589844 C711.42977794 429.02961105 701.2535205 441.61432472 689 451 C688.34 451 687.68 451 687 451 C687 451.66 687 452.32 687 453 C648.06125352 475.69506821 606.5623727 483.39010691 562 487 C561.07263031 487.07659851 560.14526062 487.15319702 559.18978882 487.2321167 C542.51127129 488.59541609 525.83347461 489.4570842 509.11534977 490.12172699 C487.76357265 490.97212351 466.44864753 491.88919204 445.1875 494.125 C444.36665924 494.21126648 443.54581848 494.29753296 442.70010376 494.38641357 C434.55764101 495.1804173 434.55764101 495.1804173 426.50097656 496.53442383 C423.34190398 497.12250968 420.27833184 497.21960383 417.06640625 497.31640625 C416.39966888 497.33723267 415.73293152 497.35805908 415.04598999 497.3795166 C412.88493636 497.44525445 410.72376734 497.50424554 408.5625 497.5625 C407.82911407 497.58367889 407.09572815 497.60485779 406.34011841 497.62667847 C393.89170607 497.9859324 381.45367216 498.11987492 369 498 C369.0446323 501.02160695 369.23410104 503.21360965 371.40527344 505.44287109 C373.35159753 506.93182482 375.34292088 508.31790536 377.375 509.6875 C400.92548173 526.50479184 413.67977435 548.6929807 419.578125 576.75 C423.14244502 604.20846534 416.11379663 629.55984603 399.625 651.6875 C391.32552909 661.93099113 381.38800077 670.47926186 370.39453125 677.71484375 C369.66621094 678.20082031 368.93789063 678.68679688 368.1875 679.1875 C367.56230469 679.57292969 366.93710937 679.95835937 366.29296875 680.35546875 C364.0913077 683.15576875 364.63202975 685.56322934 365 689 C366.35733029 692.47640423 366.35733029 692.47640423 368.25 695.9375 C378.92832796 717.2402522 379.85306206 742.6946479 372.875 765.25 C369.1470892 776.32488828 363.75917557 787.45763449 357 797 C356.34 797 355.68 797 355 797 C354.72027344 797.59425781 354.44054687 798.18851563 354.15234375 798.80078125 C347.01035033 812.43109412 330.3440993 821.49749421 317 828 C316.39777498 835.92929611 317.46138897 843.05922395 319 850.8125 C323.26089689 872.8336151 320.81235755 894.35353498 308.60546875 913.65234375 C304.54929821 919.58362963 300.22482732 925.05016359 295 930 C294.2575 930.78375 293.515 931.5675 292.75 932.375 C286.18229639 938.64417163 278.91291053 943.58816797 271 948 C270.18917969 948.47050781 269.37835937 948.94101562 268.54296875 949.42578125 C250.27361571 959.34954403 226.91553281 966.57565687 206 966 C206 966.99 206 967.98 206 969 C190.82 969 175.64 969 160 969 C160 968.01 160 967.02 160 966 C159.41371826 966.02537842 158.82743652 966.05075684 158.22338867 966.0769043 C151.32925158 966.24232038 145.03339227 965.28473658 138.3125 963.8125 C136.7200647 963.46650757 136.7200647 963.46650757 135.09545898 963.11352539 C120.69830245 959.90111803 108.18845683 954.895037 95.00415039 948.27709961 C81.55704824 941.58918479 71.32503558 939.9997276 56.46899414 942.06787109 C-6.34774456 950.66757931 -74.38686447 940.0215448 -133 917 C-134.23073242 916.52336914 -134.23073242 916.52336914 -135.48632812 916.03710938 C-150.54939681 910.13983075 -164.19376112 902.37942273 -178 894 C-179.55763938 893.06741454 -181.11615003 892.13628177 -182.67578125 891.20703125 C-192.1624261 885.5501225 -192.1624261 885.5501225 -195.640625 883.265625 C-199.60478828 881.13915331 -202.76554287 881.8457278 -207 883 C-212.58668716 885.33023662 -217.82059075 888.14412736 -222.8125 891.5625 C-240.26893364 902.75621312 -266.31388453 904.69838731 -286.21972656 900.81787109 C-310.34198982 895.47171639 -330.21110407 882.84359228 -348 866 C-348.81082031 865.24203125 -349.62164062 864.4840625 -350.45703125 863.703125 C-361.29159529 853.26099399 -369.96559339 840.90448339 -378.74389648 828.73779297 C-379.60221468 827.55032767 -380.46660379 826.36723309 -381.33618164 825.18798828 C-383.79618307 821.82128626 -385.89330476 818.53082781 -387.6875 814.75 C-389.45301135 811.0973732 -391.25517727 807.49945809 -393.21875 803.94921875 C-411.99906984 769.80765746 -422.80370074 732.28655991 -428.4375 693.875 C-428.60145264 692.76882324 -428.76540527 691.66264648 -428.93432617 690.52294922 C-429.95756162 682.98337983 -430.17467159 675.60326038 -430 668 C-430.99 668 -431.98 668 -433 668 C-433 650.51 -433 633.02 -433 615 C-432.01 615 -431.02 615 -430 615 C-430.01885254 614.33790527 -430.03770508 613.67581055 -430.05712891 612.99365234 C-430.16820767 606.03719208 -429.5582083 599.47407602 -428.375 592.625 C-428.1109436 591.07449951 -428.1109436 591.07449951 -427.84155273 589.49267578 C-425.98037013 579.09451944 -423.21916073 569.0514884 -420 559 C-419.79262207 558.33822754 -419.58524414 557.67645508 -419.37158203 556.99462891 C-409.59079327 526.13750267 -390.25069272 500.26107609 -361.45117188 485.13818359 C-355.14358516 481.93862278 -348.90231714 479.60783388 -342 478 C-340.80117188 477.70351563 -339.60234375 477.40703125 -338.3671875 477.1015625 C-325.06993192 474.13426922 -311.54600463 474.70802798 -298 475 C-291.55455387 461.07930656 -291.55455387 461.07930656 -285.9375 446.8125 C-276.42185625 420.65841063 -261.08036332 397.00398415 -244.88305664 374.53076172 C-244.40473389 373.86447754 -243.92641113 373.19819336 -243.43359375 372.51171875 C-242.80022095 371.63713013 -242.80022095 371.63713013 -242.15405273 370.74487305 C-240.94059339 368.99341316 -240.94059339 368.99341316 -239.9934082 366.92822266 C-238.53373078 364.0949633 -236.26095503 362.23120562 -234 360 C-232.38096466 357.95476165 -230.80289393 355.90574848 -229.25 353.8125 C-225.4597479 348.78299036 -221.43911068 344.1065694 -217.16015625 339.48046875 C-214.85003729 336.8278005 -212.83610807 334.06355777 -210.8125 331.1875 C-207.89509708 327.06745959 -204.92724985 324.1908905 -201 321 C-198.84059174 318.38597948 -196.77433646 315.71980712 -194.734375 313.01171875 C-194.16203125 312.34785156 -193.5896875 311.68398438 -193 311 C-192.34 311 -191.68 311 -191 311 C-190.7525 310.44828125 -190.505 309.8965625 -190.25 309.328125 C-188.75765526 306.54863293 -186.96327477 304.2185293 -185 301.75 C-184.29875 300.85796875 -183.5975 299.9659375 -182.875 299.046875 C-181.946875 298.03367187 -181.946875 298.03367187 -181 297 C-180.34 297 -179.68 297 -179 297 C-178.690625 296.38125 -178.38125 295.7625 -178.0625 295.125 C-177.375 293.75 -176.6875 292.375 -176 291 C-175.34 291 -174.68 291 -174 291 C-173.64228516 290.17435547 -173.64228516 290.17435547 -173.27734375 289.33203125 C-171.69283126 286.4392057 -169.72030307 284.18364659 -167.5625 281.6875 C-125.34891473 231.90404949 -105.66568954 171.75113067 -108.58618164 106.81933594 C-108.97416502 97.87334694 -109.14725344 88.93944897 -109.17825317 79.98602295 C-109.18430911 78.48067265 -109.19399814 76.97533155 -109.20773315 75.47003174 C-109.38382491 54.9398728 -106.36957731 36.37921103 -95 19 C-94.37351562 17.97519531 -94.37351562 17.97519531 -93.734375 16.9296875 C-92.6875 15.25 -92.6875 15.25 -91 13 C-90.34 13 -89.68 13 -89 13 C-88.7834375 12.43152344 -88.566875 11.86304687 -88.34375 11.27734375 C-83.89049529 3.73011266 -72.90808714 -1.81804778 -65 -5 C-64.04609375 -5.391875 -63.0921875 -5.78375 -62.109375 -6.1875 C-41.84925398 -13.23449861 -18.70123265 -9.69271204 0 0 Z M-68.75 30.87890625 C-78.7176239 43.21384083 -79.28802917 58.51077491 -79.27439499 73.70538902 C-79.27340779 76.14772993 -79.28663415 78.58965596 -79.30337524 81.03193665 C-79.34892529 87.96941738 -79.37410093 94.90685684 -79.38085938 101.84448242 C-79.43831776 142.58490765 -82.27647121 184.31994009 -98.7734375 222.171875 C-99.56620692 223.9997892 -100.32418414 225.84336625 -101.0390625 227.703125 C-108.63176778 247.25843788 -120.49100871 265.50188218 -132.81689453 282.37597656 C-133.89547701 283.85652354 -134.96207012 285.34578595 -136.02734375 286.8359375 C-143.98306266 297.93164363 -152.5118326 308.53460259 -161.37890625 318.91015625 C-163.82303334 321.77577694 -166.19695734 324.69405522 -168.5625 327.625 C-172.55144213 332.54614057 -176.78615291 337.17800393 -181.12890625 341.78515625 C-183.2151127 343.7713989 -183.2151127 343.7713989 -183 346 C-183.66 346 -184.32 346 -185 346 C-186.59914165 347.73855255 -186.59914165 347.73855255 -188.3125 350.0625 C-191.81179305 354.56159107 -195.47698333 358.85405007 -199.25 363.125 C-205.41271881 370.14617126 -211.00955915 377.50782931 -216.53320312 385.03564453 C-218.13409716 387.17958484 -219.77795601 389.28562979 -221.4296875 391.390625 C-232.18839109 405.1729206 -241.56998495 419.69654945 -250 435 C-250.36770508 435.66241699 -250.73541016 436.32483398 -251.11425781 437.00732422 C-254.8115514 443.53962159 -254.8115514 443.53962159 -257.93359375 450.3515625 C-258.83513754 452.59056136 -259.83171636 454.65653034 -260.9375 456.796875 C-262.98585519 460.84427313 -264.54205125 464.95987557 -266 469.25 C-266.3856311 470.37003418 -266.3856311 470.37003418 -266.77905273 471.51269531 C-267.29098718 473.00248387 -267.8007419 474.49302359 -268.30810547 475.984375 C-268.88761514 477.67260077 -269.48993038 479.352975 -270.09765625 481.03125 C-273.56269637 490.79508776 -275.89378145 500.86879926 -278 511 C-278.25426758 512.21598877 -278.25426758 512.21598877 -278.51367188 513.45654297 C-284.51912974 543.86384572 -282.96802621 579.23513475 -275.8125 609.2734375 C-274.69449991 614.4011879 -273.89329601 619.56908052 -273.0625 624.75 C-271.41773967 634.93169748 -269.38161674 644.96680608 -267 655 C-280.43315372 650.10486771 -287.28308655 633.58824966 -293.3125 621.33203125 C-294.26081086 619.23907955 -295.1382446 617.12976691 -296 615 C-296.46792969 613.98099609 -296.46792969 613.98099609 -296.9453125 612.94140625 C-306.35642506 591.56261905 -307.15867723 568.33962166 -307.1875 545.375 C-307.18867828 544.65020447 -307.18985657 543.92540894 -307.19107056 543.1786499 C-307.18945303 534.40541474 -306.83888805 525.73820206 -306 517 C-305.86147926 514.98123056 -305.74546536 512.96018586 -305.6875 510.9375 C-305.63142578 509.62072266 -305.63142578 509.62072266 -305.57421875 508.27734375 C-305.8205246 505.90872237 -305.8205246 505.90872237 -307.52734375 504.21875 C-310.95084235 502.53133837 -314.13829493 502.5108328 -317.875 502.5625 C-318.62587891 502.56862305 -319.37675781 502.57474609 -320.15039062 502.58105469 C-327.49853101 502.78292668 -334.10520901 504.4681136 -341 507 C-342.22783203 507.45052734 -342.22783203 507.45052734 -343.48046875 507.91015625 C-365.27433115 516.82056725 -378.89433207 535.63462867 -388.0625 556.5625 C-404.7146806 598.69816849 -406.0432513 653.31758294 -396.7109375 697.484375 C-396.00285178 700.98589779 -395.54641567 704.4537474 -395.125 708 C-394.13467839 715.08278016 -392.10877032 721.66561133 -389.84521484 728.42138672 C-388.85638621 731.43814235 -387.92181676 734.46958883 -386.98828125 737.50390625 C-378.92511324 763.52570375 -368.88335793 790.60380074 -353 813 C-352.59813477 813.57266602 -352.19626953 814.14533203 -351.78222656 814.73535156 C-346.55877414 822.14891479 -341.17247548 829.2338975 -334.97265625 835.87109375 C-333.264455 837.71459807 -331.69312081 839.60123209 -330.125 841.5625 C-317.05592759 856.81571876 -295.76691798 868.56318439 -275.64672852 870.28735352 C-272.19690987 870.39978583 -268.76384615 870.40992087 -265.3125 870.375 C-264.15427734 870.38660156 -262.99605469 870.39820313 -261.80273438 870.41015625 C-252.1300862 870.37720004 -245.06522833 868.26799082 -236.5 863.875 C-235.4790625 863.35679687 -234.458125 862.83859375 -233.40625 862.3046875 C-231.11537765 861.21023409 -231.11537765 861.21023409 -230 860 C-229.46935844 855.04734541 -229.96121805 852.25184961 -233.09814453 848.32226562 C-233.54013184 847.80341797 -233.98211914 847.28457031 -234.4375 846.75 C-234.8897998 846.18990234 -235.34209961 845.62980469 -235.80810547 845.05273438 C-237.96424978 842.3946186 -240.17931636 839.78752038 -242.38671875 837.171875 C-254.78789931 822.3683715 -263.25623944 805.54295341 -268.9921875 787.171875 C-269.90941756 784.08676595 -269.90941756 784.08676595 -271.0703125 781.578125 C-273.20509799 775.65813163 -273.14489764 769.22904179 -273.09765625 763 C-273.0962413 762.2788501 -273.09482635 761.5577002 -273.09336853 760.81469727 C-273.08783381 758.54308676 -273.07529423 756.27158 -273.0625 754 C-273.05747654 752.44661602 -273.05291512 750.89323048 -273.04882812 749.33984375 C-273.03788589 745.55985672 -273.0206676 741.77994586 -273 738 C-271.35 738 -269.7 738 -268 738 C-266.46612826 740.94975335 -265.14878402 743.97000573 -263.8449707 747.02709961 C-262.41734159 750.36043416 -260.95677191 753.67932343 -259.5 757 C-258.90598223 758.35404923 -258.3122301 759.70821502 -257.71875 761.0625 C-257.42919434 761.72314453 -257.13963867 762.38378906 -256.84130859 763.06445312 C-256.05148436 764.88155311 -255.2790281 766.70617434 -254.5078125 768.53125 C-244.63350804 791.24726647 -231.41182733 811.51386596 -214.33984375 829.484375 C-212 832 -212 832 -210.01171875 834.5625 C-207.84025484 837.1935553 -205.55335527 839.1416737 -202.875 841.25 C-199.29687679 844.10219507 -195.91467272 847.01024416 -192.625 850.1875 C-182.05091515 859.80183511 -169.25842043 867.33010705 -156.875 874.375 C-156.21870605 874.75011719 -155.56241211 875.12523437 -154.88623047 875.51171875 C-152.04273205 877.08242755 -150.30154679 878 -147 878 C-147 878.66 -147 879.32 -147 880 C-143.33543396 881.6713161 -139.66799182 883.33621809 -136 885 C-134.90751953 885.50080078 -134.90751953 885.50080078 -133.79296875 886.01171875 C-127.32183564 888.94414427 -120.74792057 891.62191162 -114.12060547 894.17919922 C-112.72113507 894.72087772 -111.32423613 895.2692534 -109.93017578 895.82470703 C-87.07812738 904.85678253 -61.43910719 910.52638737 -37 913 C-36.01741211 913.10006348 -35.03482422 913.20012695 -34.02246094 913.30322266 C-19.57768712 914.69509388 -5.18866567 915.18226177 9.3125 915.1875 C10.03776886 915.18849701 10.76303772 915.18949402 11.51028442 915.19052124 C21.38029297 915.18897885 31.15939427 914.7748017 41 914 C40.42478514 910.26852019 39.40091006 907.59929194 37.453125 904.375 C36.68343384 903.07731689 36.68343384 903.07731689 35.89819336 901.75341797 C35.35428955 900.84479004 34.81038574 899.93616211 34.25 899 C29.66627535 891.15777034 25.74997032 883.68411681 23 875 C22.68546875 874.154375 22.3709375 873.30875 22.046875 872.4375 C17.68104662 859.41939357 18.76450232 844.55372984 24 832 C24.37382812 831.28714844 24.74765625 830.57429687 25.1328125 829.83984375 C26.21317594 827.88671652 26.21317594 827.88671652 26 825 C27.32 825 28.64 825 30 825 C30.01417969 825.64582031 30.02835937 826.29164063 30.04296875 826.95703125 C31.3710419 853.19544949 43.79883414 876.49128755 62 895 C62.48001465 895.49467773 62.9600293 895.98935547 63.45458984 896.49902344 C82.55793151 915.96777867 107.93452346 928.8942312 134.1875 935.625 C135.30447266 935.9240625 136.42144531 936.223125 137.57226562 936.53125 C152.29485996 940.3447816 166.49824785 941.35125826 181.62426758 941.31567383 C184.4302441 941.31250819 187.23516794 941.33608995 190.04101562 941.36132812 C204.98559036 941.41311084 218.65998923 939.36634943 233 935 C233.7425 934.77570312 234.485 934.55140625 235.25 934.3203125 C246.05354664 930.88632803 255.60146619 926.33712214 265 920 C266.60875 919.0409375 266.60875 919.0409375 268.25 918.0625 C272.11270821 915.16546885 275.00097056 911.76515705 278 908 C278.59039063 907.26910156 279.18078125 906.53820312 279.7890625 905.78515625 C288.53624975 894.20572996 292.17797712 881.53847284 292.1875 867.1875 C292.19974609 866.22779297 292.21199219 865.26808594 292.22460938 864.27929688 C292.29709293 854.28381266 292.29709293 854.28381266 288 845.5625 C283.83347293 842.30740073 280.12048643 842.63390137 275 843 C271.63281698 843.60562295 268.35958599 844.46721762 265.0625 845.375 C258.40651772 847.15406597 251.77740006 848.75181161 245 850 C243.60164917 850.26224365 243.60164917 850.26224365 242.17504883 850.52978516 C210.25492328 856.23045128 174.90964626 857.15644858 143 851 C142.01290039 850.81775879 141.02580078 850.63551758 140.00878906 850.44775391 C123.37283417 847.33728249 106.57120921 843.77805577 91 837 C90.11957031 836.65582031 89.23914063 836.31164062 88.33203125 835.95703125 C60.4787788 824.94353197 32.17148314 807.51296659 19.37109375 779.42578125 C14.41766223 767.77307281 12.62138758 757.05063949 12.6875 744.375 C12.69313965 743.23635498 12.6987793 742.09770996 12.70458984 740.92456055 C13.00692532 719.76257396 18.2723608 698.95494247 33 683 C33.66 682.67 34.32 682.34 35 682 C35 681.34 35 680.68 35 680 C35.5775 679.73703125 36.155 679.4740625 36.75 679.203125 C39.11845944 677.9366571 40.9465294 676.4767821 43 674.75 C49.08071455 669.92979842 56.31310586 665.57024441 64 664 C62.70712701 661.23905161 61.2727631 658.94265539 59.375 656.5625 C51.33505164 645.88843653 46.17328368 635.93888759 43 623 C42.81163574 622.28005859 42.62327148 621.56011719 42.42919922 620.81835938 C40.63981241 613.19415267 40.77446339 605.67045382 40.875 597.875 C40.88505718 596.52344419 40.89417816 595.17188107 40.90234375 593.8203125 C40.92572681 590.54668442 40.95849939 587.27344006 41 584 C35.80740283 588.73442683 32.33940644 594.31112371 28.59570312 600.21435547 C18.03670549 616.80442153 5.07058716 631.50072827 -11 643 C-11.79148437 643.57363281 -12.58296875 644.14726563 -13.3984375 644.73828125 C-15.91071275 646.52540449 -18.45378304 648.26168045 -21 650 C-21.86753906 650.62648438 -22.73507812 651.25296875 -23.62890625 651.8984375 C-35.34979021 660.14707072 -48.62929123 665.94737243 -62 671 C-62.98742187 671.40863281 -63.97484375 671.81726563 -64.9921875 672.23828125 C-79.66366354 678.20186683 -94.30889984 680.01430005 -110 680.5625 C-111.73443359 680.62727539 -111.73443359 680.62727539 -113.50390625 680.69335938 C-116.33583854 680.79867917 -119.16784747 680.90081087 -122 681 C-121.73291016 679.12011719 -121.73291016 679.12011719 -121 677 C-119.40380859 675.91894531 -119.40380859 675.91894531 -117.2734375 675.078125 C-116.45713867 674.74748047 -115.64083984 674.41683594 -114.79980469 674.07617188 C-113.87586914 673.72103516 -112.95193359 673.36589844 -112 673 C-110.99098633 672.59845703 -109.98197266 672.19691406 -108.94238281 671.78320312 C-105.50923943 670.4230361 -102.06770637 669.08576258 -98.625 667.75 C-74.13648154 658.29116131 -74.13648154 658.29116131 -51 646 C-49.5274545 645.11439916 -48.05479247 644.22899205 -46.58203125 643.34375 C-45.09542378 642.43902702 -43.60973045 641.53280006 -42.125 640.625 C-41.41577393 640.19590332 -40.70654785 639.76680664 -39.97583008 639.32470703 C-38.28160306 638.27172634 -36.6351899 637.14250931 -35 636 C-35 635.34 -35 634.68 -35 634 C-34.31035156 633.77054688 -33.62070312 633.54109375 -32.91015625 633.3046875 C-29.35227026 631.70960841 -26.46607686 629.53757369 -23.4375 627.125 C-22.8297876 626.64466309 -22.2220752 626.16432617 -21.59594727 625.66943359 C-15.26231917 620.56398075 -9.62977853 614.85631209 -4 609 C-3.12859375 608.13117187 -2.2571875 607.26234375 -1.359375 606.3671875 C12.80824259 592.15265727 23.23470225 575.38799852 33 558 C33.48726563 557.13890625 33.97453125 556.2778125 34.4765625 555.390625 C35.66876079 553.26953601 36.84018493 551.13893432 38 549 C38.33515625 548.39542969 38.6703125 547.79085937 39.015625 547.16796875 C44.11665508 537.55293189 47.05916855 526.97646077 50.04785156 516.56030273 C51.60595729 511.19166534 53.33718735 505.89989009 55.1875 500.625 C55.43749756 499.90530029 55.68749512 499.18560059 55.94506836 498.4440918 C57.05465347 495.32818495 58.15489287 492.76766069 60 490 C62.125 489.3125 62.125 489.3125 64 489 C62.78278546 507.80672951 61.54451329 526.17877449 55.671875 544.1796875 C55.00382727 546.98393435 54.99852045 548.34222734 56 551 C59.60933237 547.48940316 63.06078511 543.96214532 66.25 540.0625 C76.18168947 528.62667939 89.92357143 522.81484738 104 518.25 C104.90145752 517.95601318 105.80291504 517.66202637 106.73168945 517.35913086 C117.41217623 514.02960981 127.83344561 512.69164584 139 512.734375 C140.65866089 512.73007729 140.65866089 512.73007729 142.35083008 512.72569275 C145.90069249 512.72135158 149.45017545 512.73380402 153 512.75 C154.21606934 512.75343414 155.43213867 512.75686829 156.68505859 512.76040649 C185.78304128 512.85708311 213.99091977 515.41222402 242.78076172 519.41699219 C246.35289547 519.91312465 249.92733716 520.38832697 253.50390625 520.8515625 C263.89212632 522.20478266 274.20233315 523.82902872 284.50561523 525.73071289 C285.41255127 525.89563232 286.3194873 526.06055176 287.25390625 526.23046875 C288.44995483 526.45319458 288.44995483 526.45319458 289.67016602 526.68041992 C292.14065524 527.01929348 294.50947859 527.05436374 297 527 C297 528.98 297 530.96 297 533 C296.14019531 532.98332275 295.28039062 532.96664551 294.39453125 532.94946289 C286.13325955 532.85880962 278.18784212 533.40489087 270 534.4375 C250.42467197 536.70635637 230.81575189 537.05090908 211.125 537.125 C210.13483887 537.12975342 209.14467773 537.13450684 208.12451172 537.1394043 C202.55757825 537.12687661 197.04601115 536.89041953 191.4921875 536.50390625 C182.85578387 535.91153896 174.23664275 535.81387646 165.58203125 535.81469727 C163.0024382 535.81250207 160.42326859 535.79422816 157.84375 535.77539062 C143.9326408 535.72659893 130.2540634 536.44615606 116.875 540.625 C116.03517578 540.88587402 115.19535156 541.14674805 114.33007812 541.41552734 C98.17178869 546.6894992 84.73033547 556.21181079 76.5 571.3125 C68.06130498 588.02179703 66.07890711 606.54881049 71.62109375 624.5078125 C78.48833606 641.89963863 91.08032249 652.41497186 107 661 C107.91007812 661.50402344 108.82015625 662.00804687 109.7578125 662.52734375 C114.97795527 665.28848036 120.31378042 667.24503376 125.9453125 669.0078125 C128.29605908 669.77135423 130.58397155 670.58786486 132.890625 671.46875 C167.74262409 684.63798544 206.18741252 685.6437894 243 685 C244.44197754 684.97897217 244.44197754 684.97897217 245.91308594 684.95751953 C265.11609996 684.60487047 284.44709615 681.92504485 303 677 C304.78350302 676.55717709 306.56734913 676.11573331 308.3515625 675.67578125 C320.51936453 672.57186614 331.7357549 668.54212579 343 663 C343.68715088 662.66709961 344.37430176 662.33419922 345.08227539 661.99121094 C349.09524159 660.02424696 352.9220621 657.91867544 356.6875 655.5 C357.57824219 654.9328125 358.46898437 654.365625 359.38671875 653.78125 C363.51330953 650.96850651 367.14335627 648.06491601 370.375 644.25 C372.15999693 642.14680797 373.93880342 640.06511944 375.828125 638.0546875 C380.4065671 633.13783881 383.25361879 628.10519586 386 622 C386.35964844 621.28070312 386.71929688 620.56140625 387.08984375 619.8203125 C392.22224108 609.24563725 393.28262815 599.04214183 393.375 587.4375 C393.38885742 586.39722656 393.40271484 585.35695313 393.41699219 584.28515625 C393.28902333 562.89415215 383.36613924 544.20258385 368.5625 529.3125 C367.04912911 527.86714578 365.52940342 526.42837861 364 525 C363.48566406 524.45988281 362.97132813 523.91976563 362.44140625 523.36328125 C360.21394778 521.25655224 357.65639295 520.0255019 354.96484375 518.5859375 C352.68818257 517.36811874 350.4385014 516.12187607 348.19140625 514.8515625 C331.76063426 505.68443505 315.49935137 501.93015359 297 499 C296.02361572 498.83209961 295.04723145 498.66419922 294.04125977 498.49121094 C283.54866167 496.80808441 273.02519561 496.34460434 262.42437744 495.79507446 C245.0469771 494.88201795 227.93379809 493.84217482 210.85791016 490.31958008 C208.82143593 489.91523953 208.82143593 489.91523953 206 490 C206 487.69 206 485.38 206 483 C207.18529297 483.03480469 207.18529297 483.03480469 208.39453125 483.0703125 C216.14737874 483.19435806 223.61797351 482.71877319 231.31103516 481.84985352 C241.85451352 480.66071631 252.42281973 479.82840095 263 479 C263.65150024 478.94886047 264.30300049 478.89772095 264.97424316 478.84503174 C297.29838784 476.31223417 329.64880356 474.15398491 362 472 C363.61849024 471.89193692 365.23697991 471.78386527 366.85546875 471.67578125 C379.5008101 470.83293635 392.14821186 470.04567618 404.80078125 469.3203125 C432.39500979 467.76226937 432.39500979 467.76226937 459.9375 465.5 C472.13675884 464.32866237 484.33781034 463.30675678 496.5625 462.4375 C497.89380951 462.34276901 497.89380951 462.34276901 499.25201416 462.24612427 C516.44824183 461.04157636 533.65890255 460.30626623 550.88696289 459.73413086 C560.06483605 459.41356471 569.01533716 458.92864116 578.09057617 457.46166992 C581.39626181 456.93712083 584.68419959 456.63400338 588.01855469 456.36865234 C609.84839439 454.59647061 630.46894105 449.51088508 651 442 C651 441.34 651 440.68 651 440 C651.70769531 439.896875 652.41539063 439.79375 653.14453125 439.6875 C662.9669138 437.32260352 670.95036519 429.85347105 678 423 C678.97259766 422.12021484 678.97259766 422.12021484 679.96484375 421.22265625 C690.56584657 411.3639556 697.03200396 396.15172144 697.61376953 381.74072266 C697.70353642 362.33155958 689.72626463 345.16057073 676.3125 331.25 C654.44981544 310.89508679 627.58015281 304.02451744 598.35546875 304.671875 C587.4350842 305.0702922 576.62109887 306.34080255 565.77148438 307.58544922 C559.41910103 308.28368504 553.05507828 308.83635147 546.6875 309.375 C545.99470947 309.4340451 545.30191895 309.49309021 544.58813477 309.55392456 C529.91841303 310.79959553 515.2386487 311.91955475 500.56015015 313.05584717 C499.88061153 313.10845451 499.20107292 313.16106186 498.50094223 313.21526337 C497.1271872 313.32160945 495.75343079 313.42793783 494.379673 313.53424835 C473.03716866 315.18650546 451.70283121 316.91775813 430.375 318.75 C428.49794876 318.91009552 428.49794876 318.91009552 426.58297729 319.07342529 C423.06288215 319.37427516 419.54310989 319.67862338 416.0234375 319.984375 C414.47172096 320.11687149 414.47172096 320.11687149 412.88865662 320.25204468 C409.1896438 320.57715859 405.54421651 320.90642682 401.88330078 321.53588867 C397.8791917 322.18041123 393.89232225 322.28543255 389.84375 322.44140625 C380.51799234 322.85571896 371.27619613 323.67617311 361.99658203 324.67071533 C346.087981 326.37070788 330.19149333 327.71745412 314.22705078 328.77783203 C308.62707252 329.16336541 303.03216073 329.60694439 297.4375 330.0625 C296.42494141 330.14193848 295.41238281 330.22137695 294.36914062 330.30322266 C293.44166016 330.37976074 292.51417969 330.45629883 291.55859375 330.53515625 C290.74704834 330.600979 289.93550293 330.66680176 289.09936523 330.73461914 C286.81169527 330.95457114 286.81169527 330.95457114 284 332 C281.68679157 332.19701148 279.36922744 332.34420363 277.05078125 332.46484375 C275.6295542 332.54356408 274.20833036 332.62234218 272.78710938 332.70117188 C270.57194697 332.81908466 268.35670696 332.93521832 266.14135742 333.04956055 C257.83058004 333.48438842 249.63336617 334.11220431 241.37892151 335.22026062 C232.76989728 336.34216325 224.11296521 336.89185863 215.45654297 337.5173645 C192.95106222 339.15014278 170.47455841 341.05655979 148 343.0625 C146.52280712 343.19425805 145.04561392 343.32601262 143.56842041 343.45776367 C140.6642943 343.71684383 137.76017109 343.97595637 134.85604858 344.2350769 C133.80185289 344.32912622 133.80185289 344.32912622 132.72636032 344.42507553 C131.32598771 344.55003359 129.92561993 344.67504585 128.52525711 344.80011368 C117.06174407 345.82359283 105.59551664 346.80834362 94.125 347.75 C84.76891114 348.52036832 75.41336558 349.29318887 66.0625 350.125 C64.75466553 350.23859863 64.75466553 350.23859863 63.42041016 350.35449219 C59.55259426 350.70445629 55.79334986 351.12638003 52 352 C51.49291104 358.46538422 52.89641824 363.4560508 55.02734375 369.55859375 C57.65168024 378.84389676 57.12033274 388.50263939 57.0625 398.0625 C57.05747414 399.51497241 57.05291316 400.96744651 57.04882812 402.41992188 C57.03791042 405.94665015 57.02070586 409.47331402 57 413 C55.02 413 53.04 413 51 413 C50.90332031 411.94425781 50.80664062 410.88851563 50.70703125 409.80078125 C49.95214178 403.78942852 48.28372324 398.02024025 46.6875 392.1875 C46.39166016 391.07568359 46.09582031 389.96386719 45.79101562 388.81835938 C43.06589797 378.75955578 39.82704587 369.06535186 35.125 359.75 C34.78057861 359.06470215 34.43615723 358.3794043 34.08129883 357.67333984 C30.97810984 351.66535894 27.73805514 346.82537009 22 343 C18.8028229 342.07660426 18.8028229 342.07660426 15 343 C12.38011434 345.01735659 10.0668694 347.23975924 7.69140625 349.5390625 C2.23007079 354.53273643 -4.06466938 358.42259706 -11 361 C-11 361.66 -11 362.32 -11 363 C-13.97 363 -16.94 363 -20 363 C-19.46970272 357.9813895 -17.75265042 354.15179232 -15.3125 349.8125 C-14.94801758 349.14959961 -14.58353516 348.48669922 -14.20800781 347.80371094 C-13.47532182 346.47173033 -12.73954336 345.14144554 -12.00048828 343.81298828 C-11.16643733 342.30160166 -10.35909826 340.77551293 -9.55859375 339.24609375 C-5.56240992 331.62352221 -0.90640592 324.4303939 3.7109375 317.17578125 C19.28302782 293.57267283 19.28302782 293.57267283 31.97875977 268.38891602 C33.17450283 265.5917977 34.49083445 262.86267771 35.80078125 260.1171875 C39.01650281 253.15813847 41.59827622 246.08780168 44 238.8125 C44.31916382 237.85062775 44.31916382 237.85062775 44.64477539 236.86932373 C47.66711409 227.71459326 50.31543646 218.52072378 52.5 209.125 C52.73074219 208.13604736 52.96148437 207.14709473 53.19921875 206.12817383 C56.30081158 192.01475161 57.35282326 178.15117275 57.31567383 163.74682617 C57.3125154 161.19992096 57.33608353 158.65418481 57.36132812 156.10742188 C57.45669137 131.417997 51.21199471 109.69814258 42 87 C41.34 87 40.68 87 40 87 C39.67 85.02 39.34 83.04 39 81 C38.34 81 37.68 81 37 81 C36.896875 80.27941406 36.79375 79.55882812 36.6875 78.81640625 C31.75490528 58.60958356 7.3937843 38.67818935 -9.1875 27.8125 C-16.14129493 23.61709878 -23.2177721 21.20323099 -31 19 C-31.68835938 18.79890625 -32.37671875 18.5978125 -33.0859375 18.390625 C-46.98492914 15.55409609 -59.31048815 20.74407321 -68.75 30.87890625 Z " fill="#040404" transform="translate(433,11)"/>
<path d="M0 0 C20.51826944 9.21098783 43.42154222 13.18014767 65.60595703 15.76464844 C67.73046875 16.07421875 67.73046875 16.07421875 69.61785889 16.57420349 C73.18550945 17.41859968 76.83778559 17.4553607 80.48828125 17.625 C81.80422775 17.68775871 81.80422775 17.68775871 83.14675903 17.75178528 C92.94208076 18.1807708 102.73502904 18.26030314 112.53857422 18.25952148 C115.59616964 18.26171209 118.65340507 18.27997865 121.7109375 18.29882812 C140.36314741 18.35419758 158.59996825 17.16221934 176.85546875 13.19921875 C178.75377441 12.80549072 178.75377441 12.80549072 180.69042969 12.40380859 C185.41630189 11.4225029 190.13634017 10.41485728 194.85644531 9.40625 C196.72236256 9.00916561 198.589022 8.61554644 200.45654297 8.22607422 C202.06177627 7.8909907 203.66524027 7.5472261 205.26611328 7.19189453 C210.64004244 6.06723128 216.26345452 5.25326048 221.73046875 6.07421875 C229.14326819 11.17386522 231.33531583 21.37063209 232.98046875 29.69921875 C236.06662574 51.38648559 231.29202927 70.41762367 218.41796875 88.38671875 C195.70339538 117.16105247 158.16297328 127.09140574 123.73046875 133.07421875 C122.58860107 133.27289551 121.4467334 133.47157227 120.27026367 133.67626953 C107.97762971 135.50898653 95.6331391 135.44641882 83.22631836 135.44482422 C79.4635583 135.44916614 75.70200447 135.48550409 71.93945312 135.5234375 C34.39832182 135.6960962 -0.33073511 128.1350418 -33.26953125 110.07421875 C-34.55730469 109.4090625 -34.55730469 109.4090625 -35.87109375 108.73046875 C-53.37918465 99.574294 -66.88572754 84.64736948 -73.32421875 66.0234375 C-77.5472067 50.89040001 -74.41854865 32.67203395 -67.33203125 19.01171875 C-61.23935067 8.7615018 -52.0317676 -0.53503885 -40.26953125 -3.92578125 C-26.30068837 -6.091606 -13.01923729 -5.91042746 0 0 Z " fill="#FDFDFD" transform="translate(548.26953125,703.92578125)"/>
<path d="M0 0 C0 0.33 0 0.66 0 1 C-1.98 1.33 -3.96 1.66 -6 2 C-5.67 4.64 -5.34 7.28 -5 10 C-3.02 10 -1.04 10 1 10 C1 10.33 1 10.66 1 11 C-6.62595318 11.45755719 -13.6029854 9.74536299 -21 8 C-21 5.69 -21 3.38 -21 1 C-18.81274749 0.83011631 -16.62518299 0.66424731 -14.4375 0.5 C-12.61025391 0.36078125 -12.61025391 0.36078125 -10.74609375 0.21875 C-7.15365784 0.00897272 -3.59752457 -0.03704015 0 0 Z " fill="#1C1C1C" transform="translate(660,493)"/>
<path d="M0 0 C9.41002278 0.96355353 9.41002278 0.96355353 14 2 C14 3.98 14 5.96 14 8 C10.04 8 6.08 8 2 8 C2.33 6.02 2.66 4.04 3 2 C2.01 1.34 1.02 0.68 0 0 Z " fill="#242424" transform="translate(716,536)"/>
<path d="M0 0 C0.33 0.99 0.66 1.98 1 3 C0.01 4.485 0.01 4.485 -1 6 C-1.38499891 7.65549531 -1.72793135 9.3222433 -2 11 C-2.66 10.67 -3.32 10.34 -4 10 C-4.268125 10.763125 -4.53625 11.52625 -4.8125 12.3125 C-5.95795247 14.90483979 -6.76415181 16.30075537 -9 18 C-12 18 -12 18 -15 17 C-14.25234375 16.27554687 -13.5046875 15.55109375 -12.734375 14.8046875 C-11.7393131 13.82840035 -10.74453663 12.85182223 -9.75 11.875 C-9.25886719 11.400625 -8.76773437 10.92625 -8.26171875 10.4375 C-4.97999929 7.1995368 -2.43920408 3.91434179 0 0 Z " fill="#222222" transform="translate(1121,421)"/>
<path d="M0 0 C1.65 0.33 3.3 0.66 5 1 C5 4.96 5 8.92 5 13 C5.66 13 6.32 13 7 13 C6.67 13.66 6.34 14.32 6 15 C5.34 15 4.68 15 4 15 C3.67 11.04 3.34 7.08 3 3 C1.35 5.31 -0.3 7.62 -2 10 C-3.32 9.01 -4.64 8.02 -6 7 C-5.01 6.67 -4.02 6.34 -3 6 C-3 5.01 -3 4.02 -3 3 C-2.01 2.67 -1.02 2.34 0 2 C0 1.34 0 0.68 0 0 Z " fill="#202020" transform="translate(470,593)"/>
<path d="M0 0 C1 3 1 3 1 7 C-0.11375 7.2475 -1.2275 7.495 -2.375 7.75 C-6.01683521 8.58825986 -6.01683521 8.58825986 -7.25 10.9375 C-7.4975 11.618125 -7.745 12.29875 -8 13 C-9.625 14.75 -9.625 14.75 -11 16 C-11.66 15.34 -12.32 14.68 -13 14 C-11.625 12.5 -11.625 12.5 -10 11 C-9.34 11 -8.68 11 -8 11 C-7.73445313 10.41734375 -7.46890625 9.8346875 -7.1953125 9.234375 C-5.96697004 6.93825772 -4.59685061 5.19643982 -2.875 3.25 C-2.33617187 2.63640625 -1.79734375 2.0228125 -1.2421875 1.390625 C-0.62730469 0.70226562 -0.62730469 0.70226562 0 0 Z " fill="#1F1F1F" transform="translate(439,608)"/>
<path d="M0 0 C4.875 4.625 4.875 4.625 6 8 C3.36 8.66 0.72 9.32 -2 10 C-3.39195915 5.82412255 -1.82323219 3.86525224 0 0 Z " fill="#E5E5E5" transform="translate(491,667)"/>
<path d="M0 0 C0.66 0.66 1.32 1.32 2 2 C0.38012331 4.31624435 -1.24555743 6.62800082 -2.875 8.9375 C-3.33519531 9.59685547 -3.79539062 10.25621094 -4.26953125 10.93554688 C-7.7734375 15.88671875 -7.7734375 15.88671875 -10 17 C-9.46968862 12.4923533 -7.74778884 9.58045212 -5 6 C-4.34 6 -3.68 6 -3 6 C-3 5.01 -3 4.02 -3 3 C-1.5 1.3125 -1.5 1.3125 0 0 Z " fill="#121212" transform="translate(458,613)"/>
<path d="M0 0 C2.0625 0.4375 2.0625 0.4375 4 1 C2.66511872 4.59391114 1.03977277 7.75490696 -1 11 C-1.99 10.34 -2.98 9.68 -4 9 C-3.52418802 7.68628013 -3.04424851 6.37405454 -2.5625 5.0625 C-2.29566406 4.33160156 -2.02882813 3.60070312 -1.75390625 2.84765625 C-1 1 -1 1 0 0 Z " fill="#F2F2F2" transform="translate(715,904)"/>
<path d="M0 0 C1.32 0.66 2.64 1.32 4 2 C3.14285714 10.57142857 3.14285714 10.57142857 1 14 C1 13.34 1 12.68 1 12 C0.34 12 -0.32 12 -1 12 C-1 10 -1 10 0.5 8.375 C0.995 7.92125 1.49 7.4675 2 7 C0.68 7 -0.64 7 -2 7 C-1.42415568 4.61435923 -0.77772405 2.33317216 0 0 Z " fill="#121212" transform="translate(35,586)"/>
<path d="M0 0 C1.140625 1.734375 1.140625 1.734375 2 4 C1.171875 6.140625 1.171875 6.140625 -0.25 8.25 C-0.70890625 8.95640625 -1.1678125 9.6628125 -1.640625 10.390625 C-2.08921875 10.92171875 -2.5378125 11.4528125 -3 12 C-3.66 12 -4.32 12 -5 12 C-5.125 8.625 -5.125 8.625 -5 5 C-3.33333333 3.33333333 -1.66666667 1.66666667 0 0 Z " fill="#0E0E0E" transform="translate(54,545)"/>
<path d="M0 0 C0 3.19633438 -0.33810135 4.34096216 -2 7 C-3.29205831 8.05278825 -4.63634717 9.04175747 -6 10 C-8.35743004 11.97212965 -10.6788816 13.98532139 -13 16 C-13.66 15.67 -14.32 15.34 -15 15 C-10.05 10.05 -5.1 5.1 0 0 Z " fill="#CBCBCB" transform="translate(449,629)"/>
<path d="M0 0 C0.33 0 0.66 0 1 0 C1.1968121 2.04079005 1.38202831 4.08270007 1.5625 6.125 C1.66691406 7.26195312 1.77132812 8.39890625 1.87890625 9.5703125 C1.99608016 12.88897993 1.6655072 15.7562686 1 19 C0.67 19 0.34 19 0 19 C-0.144375 18.2575 -0.28875 17.515 -0.4375 16.75 C-0.92129198 14.12901844 -0.92129198 14.12901844 -1.59375 12.15625 C-2.10582856 9.43829454 -1.6642447 7.44015277 -1.0625 4.75 C-0.86785156 3.85796875 -0.67320313 2.9659375 -0.47265625 2.046875 C-0.31667969 1.37140625 -0.16070312 0.6959375 0 0 Z " fill="#232323" transform="translate(35,699)"/>
<path d="M0 0 C0.6875 1.8125 0.6875 1.8125 1 4 C-0.3125 5.75 -0.3125 5.75 -2 7 C-2.66 7 -3.32 7 -4 7 C-4.33 7.99 -4.66 8.98 -5 10 C-6.62332967 11.38576923 -8.28724465 12.72641268 -10 14 C-8.38798165 8.2683792 -4.12110332 4.12110332 0 0 Z " fill="#D6D6D6" transform="translate(521,568)"/>
<path d="M0 0 C0.33 0.66 0.66 1.32 1 2 C2.32 1.67 3.64 1.34 5 1 C5 4 5 4 3.46875 5.60546875 C2.8190625 6.12753906 2.169375 6.64960937 1.5 7.1875 C0.8503125 7.71730469 0.200625 8.24710938 -0.46875 8.79296875 C-0.9740625 9.19128906 -1.479375 9.58960938 -2 10 C-1.54177532 6.53058454 -1.10868317 3.32604951 0 0 Z " fill="#E2E2E2" transform="translate(490,552)"/>
<path d="M0 0 C0.625 1.8125 0.625 1.8125 1 4 C-1 7 -1 7 -3 8 C-3.99 8 -4.98 8 -6 8 C-4.55746343 4.63408134 -2.66735273 2.48952921 0 0 Z M-9 9 C-8.34 9.33 -7.68 9.66 -7 10 C-8.65 10.66 -10.3 11.32 -12 12 C-11.01 11.01 -10.02 10.02 -9 9 Z " fill="#303030" transform="translate(710,919)"/>
<path d="M0 0 C0.66 0.33 1.32 0.66 2 1 C-0.12336792 5.13497963 -2.04916722 6.6873174 -6 9 C-7.34736973 10.65533995 -8.68334336 12.32012773 -10 14 C-10.66 14 -11.32 14 -12 14 C-10.43387807 10.15588253 -7.97905879 7.84049791 -5 5 C-3.6078125 3.6078125 -3.6078125 3.6078125 -2.1875 2.1875 C-1.1046875 1.1046875 -1.1046875 1.1046875 0 0 Z " fill="#D5D5D5" transform="translate(496,706)"/>
<path d="M0 0 C0.33 0.66 0.66 1.32 1 2 C0.34 2 -0.32 2 -1 2 C-0.67 2.99 -0.34 3.98 0 5 C-1.65 5.33 -3.3 5.66 -5 6 C-5.33 6.99 -5.66 7.98 -6 9 C-6.99 9 -7.98 9 -9 9 C-9 8.34 -9 7.68 -9 7 C-9.66 6.67 -10.32 6.34 -11 6 C-7.37 4.02 -3.74 2.04 0 0 Z " fill="#DDDDDD" transform="translate(403,667)"/>
<path d="M0 0 C0.66 0.99 1.32 1.98 2 3 C1.05125 3.7425 0.1025 4.485 -0.875 5.25 C-3.32532401 7.27845219 -4.87325363 8.9577848 -6 12 C-6.99 12 -7.98 12 -9 12 C-7.55575365 8.76138697 -5.74227753 6.38030837 -3.375 3.75 C-2.74335938 3.04359375 -2.11171875 2.3371875 -1.4609375 1.609375 C-0.97882813 1.07828125 -0.49671875 0.5471875 0 0 Z " fill="#D0D0D0" transform="translate(236,372)"/>
<path d="M0 0 C0.99 0.33 1.98 0.66 3 1 C2.07456291 2.34173403 1.13422595 3.67320159 0.1875 5 C-0.33457031 5.7425 -0.85664063 6.485 -1.39453125 7.25 C-1.92433594 7.8275 -2.45414063 8.405 -3 9 C-3.99 9 -4.98 9 -6 9 C-5.67 7.68 -5.34 6.36 -5 5 C-4.34 5 -3.68 5 -3 5 C-3.33 4.01 -3.66 3.02 -4 2 C-3.01 2 -2.02 2 -1 2 C-0.67 1.34 -0.34 0.68 0 0 Z " fill="#151515" transform="translate(257,343)"/>
<path d="M0 0 C0.66 0.33 1.32 0.66 2 1 C-0.99481865 5.22797927 -0.99481865 5.22797927 -3 7 C-6.3125 7.375 -6.3125 7.375 -9 7 C-9.33 6.34 -9.66 5.68 -10 5 C-8.38007835 4.13624104 -6.75388139 3.28424146 -5.125 2.4375 C-4.22007812 1.96183594 -3.31515625 1.48617187 -2.3828125 0.99609375 C-1.20332031 0.50302734 -1.20332031 0.50302734 0 0 Z " fill="#2B2B2B" transform="translate(738,815)"/>
<path d="M0 0 C0.66 0.99 1.32 1.98 2 3 C1.01 4.485 1.01 4.485 0 6 C-0.66 6 -1.32 6 -2 6 C-2.12375 6.61875 -2.2475 7.2375 -2.375 7.875 C-3 10 -3 10 -5 12 C-5.66 11.34 -6.32 10.68 -7 10 C-3.535 5.05 -3.535 5.05 0 0 Z " fill="#292929" transform="translate(770,786)"/>
<path d="M0 0 C1.45880109 0.14107747 2.91703551 0.28802415 4.375 0.4375 C5.59316406 0.55931641 5.59316406 0.55931641 6.8359375 0.68359375 C9 1 9 1 11 2 C11 2.66 11 3.32 11 4 C6.48382401 4.07654536 2.40914783 4.10228696 -2 3 C-1.34 2.01 -0.68 1.02 0 0 Z " fill="#EDEDED" transform="translate(743,513)"/>
<path d="M0 0 C0.66 0.99 1.32 1.98 2 3 C0.02 4.65 -1.96 6.3 -4 8 C-3.67 9.65 -3.34 11.3 -3 13 C-4.65 12.67 -6.3 12.34 -8 12 C-8 12.66 -8 13.32 -8 14 C-8.66 13.67 -9.32 13.34 -10 13 C-9.52949219 12.39671875 -9.05898437 11.7934375 -8.57421875 11.171875 C-7.64029297 9.97304688 -7.64029297 9.97304688 -6.6875 8.75 C-6.07261719 7.96109375 -5.45773438 7.1721875 -4.82421875 6.359375 C-3.19620982 4.2537703 -1.59064137 2.13390657 0 0 Z " fill="#CCCCCC" transform="translate(218,394)"/>
<path d="M0 0 C1.17539996 0.92652701 2.34010577 1.86663387 3.5 2.8125 C4.1496875 3.33457031 4.799375 3.85664062 5.46875 4.39453125 C7 6 7 6 7 9 C5.02 8.34 3.04 7.68 1 7 C1 6.01 1 5.02 1 4 C0.34 3.67 -0.32 3.34 -1 3 C-0.67 2.01 -0.34 1.02 0 0 Z " fill="#1C1C1C" transform="translate(513,651)"/>
<path d="M0 0 C1.2109375 1.640625 1.2109375 1.640625 2 4 C0.6640625 6.796875 0.6640625 6.796875 -1.375 9.75 C-2.04273438 10.73484375 -2.71046875 11.7196875 -3.3984375 12.734375 C-3.92695313 13.48203125 -4.45546875 14.2296875 -5 15 C-6 12 -6 12 -4.78515625 9.08203125 C-4.21667969 8.00308594 -3.64820313 6.92414063 -3.0625 5.8125 C-2.49660156 4.72582031 -1.93070313 3.63914062 -1.34765625 2.51953125 C-0.90292969 1.68808594 -0.45820313 0.85664063 0 0 Z " fill="#181818" transform="translate(196,419)"/>
<path d="M0 0 C1.6875 3.5625 1.6875 3.5625 3 7 C-0.5786304 5.34832443 -3.74820188 3.21713508 -7 1 C-3.375 -1.125 -3.375 -1.125 0 0 Z " fill="#222222" transform="translate(1100,330)"/>
<path d="M0 0 C0.33 0.99 0.66 1.98 1 3 C3.78918149 4.10540926 3.78918149 4.10540926 6 4 C6.99 4.66 7.98 5.32 9 6 C6.04335481 7.4783226 3.25770263 7.06032783 0 7 C-0.93423645 3.98968256 -1.04449911 3.13349732 0 0 Z " fill="#3C3C3C" transform="translate(413,368)"/>
<path d="M0 0 C1.66611905 -0.042721 3.33382885 -0.04063832 5 0 C5.33 0.33 5.66 0.66 6 1 C6.66 1 7.32 1 8 1 C12 5 12 5 12 7 C7.39104317 5.68315519 3.85859765 3.84801255 0 1 C0 0.67 0 0.34 0 0 Z " fill="#CCCCCC" transform="translate(122,867)"/>
<path d="M0 0 C-0.50522222 4.37859255 -3.17827222 6.81651224 -6 10 C-6.33 9.01 -6.66 8.02 -7 7 C-6.34 7 -5.68 7 -5 7 C-5.33 6.01 -5.66 5.02 -6 4 C-2.25 0 -2.25 0 0 0 Z " fill="#171717" transform="translate(272,328)"/>
<path d="M0 0 C0 3.61165822 -0.61753391 4.3710719 -3 7 C-5.5 8.8125 -5.5 8.8125 -8 10 C-8.99 9.67 -9.98 9.34 -11 9 C-7.37 6.03 -3.74 3.06 0 0 Z " fill="#DDDDDD" transform="translate(433,645)"/>
<path d="M0 0 C0.99 0.33 1.98 0.66 3 1 C0.525 4.465 0.525 4.465 -2 8 C-3.5625 6.1875 -3.5625 6.1875 -5 4 C-4.67 3.01 -4.34 2.02 -4 1 C-3.01 1 -2.02 1 -1 1 C-0.67 0.67 -0.34 0.34 0 0 Z " fill="#131313" transform="translate(222,385)"/>
<path d="M0 0 C0.928125 0.20625 1.85625 0.4125 2.8125 0.625 C2.4825 1.615 2.1525 2.605 1.8125 3.625 C3.1325 3.955 4.4525 4.285 5.8125 4.625 C3.8125 5.625 3.8125 5.625 1.4296875 4.84765625 C0.52476562 4.46480469 -0.38015625 4.08195313 -1.3125 3.6875 C-2.67761719 3.11708984 -2.67761719 3.11708984 -4.0703125 2.53515625 C-4.76898437 2.23480469 -5.46765625 1.93445313 -6.1875 1.625 C-3.1875 -0.375 -3.1875 -0.375 0 0 Z " fill="#C3C3C3" transform="translate(550.1875,937.375)"/>
<path d="M0 0 C1.32 0 2.64 0 4 0 C4 0.99 4 1.98 4 3 C2.35 3.66 0.7 4.32 -1 5 C-0.67 5.66 -0.34 6.32 0 7 C-1.98 7.99 -1.98 7.99 -4 9 C-2.94124926 5.59687262 -1.99097846 2.98646769 0 0 Z " fill="#3D3D3D" transform="translate(493,500)"/>
<path d="M0 0 C2.25 0.125 2.25 0.125 5 1 C7.3125 4.0625 7.3125 4.0625 9 7 C6 7 6 7 4.39453125 5.46875 C3.87246094 4.8190625 3.35039062 4.169375 2.8125 3.5 C2.28269531 2.8503125 1.75289063 2.200625 1.20703125 1.53125 C0.80871094 1.0259375 0.41039062 0.520625 0 0 Z " fill="#DCDCDC" transform="translate(488,898)"/>
<path d="M0 0 C2.52588702 2.36292656 3.88820837 3.66462511 5 7 C2 7 2 7 0.61328125 5.6875 C-0.59114583 4.125 -1.79557292 2.5625 -3 1 C-2.01 0.67 -1.02 0.34 0 0 Z " fill="#E8E8E8" transform="translate(219,836)"/>
<path d="M0 0 C1.10844919 3.32534757 0.84454356 5.62182575 0 9 C-1.98 8.01 -3.96 7.02 -6 6 C-5.67 5.01 -5.34 4.02 -5 3 C-4.34 3 -3.68 3 -3 3 C-1.37485532 1.54166642 -1.37485532 1.54166642 0 0 Z " fill="#292929" transform="translate(493,557)"/>
<path d="M0 0 C-0.66 1.32 -1.32 2.64 -2 4 C-2.680625 3.814375 -3.36125 3.62875 -4.0625 3.4375 C-7.57232191 2.91476057 -10.52188063 3.38621423 -14 4 C-11.37350692 2.24900461 -9.38191413 1.30690675 -6.4375 0.3125 C-5.65246094 0.04050781 -4.86742187 -0.23148437 -4.05859375 -0.51171875 C-2 -1 -2 -1 0 0 Z " fill="#3E3E3E" transform="translate(1080,455)"/>
<path d="M0 0 C2.11180592 2.57089417 3.66306057 4.63060567 4 8 C3.34 8.66 2.68 9.32 2 10 C-1.07692308 5.69230769 -1.07692308 5.69230769 -0.6875 2.1875 C-0.460625 1.465625 -0.23375 0.74375 0 0 Z " fill="#E4E4E4" transform="translate(172,821)"/>
<path d="M0 0 C2.60608273 2.5162178 4.89381685 5.05134359 7 8 C6.67 8.66 6.34 9.32 6 10 C3.5625 8.9375 3.5625 8.9375 1 7 C0.1875 3.3125 0.1875 3.3125 0 0 Z " fill="#232323" transform="translate(193,808)"/>
<path d="M0 0 C1.65 0 3.3 0 5 0 C5.33 0.99 5.66 1.98 6 3 C4.03533587 4.06775224 2.03144641 5.06553465 0 6 C-0.66 5.67 -1.32 5.34 -2 5 C-1.34 3.35 -0.68 1.7 0 0 Z " fill="#171717" transform="translate(384,672)"/>
<path d="M0 0 C-1.625 2 -1.625 2 -4 4 C-7.25 4.25 -7.25 4.25 -10 4 C-6.87839899 0.56623888 -4.64008112 -1.54669371 0 0 Z " fill="#333333" transform="translate(383,658)"/>
<path d="M0 0 C1.32 0.33 2.64 0.66 4 1 C1.6950577 4.45741345 -0.68399973 6.56826647 -4 9 C-2.80100302 5.9168649 -1.52299523 2.93720508 0 0 Z " fill="#262626" transform="translate(420,355)"/>
<path d="M0 0 C3.82946843 1.45255699 5.12050295 3.42895561 7 7 C6.34 7.66 5.68 8.32 5 9 C4.16094435 7.87926138 3.32892169 6.75325453 2.5 5.625 C2.0359375 4.99851562 1.571875 4.37203125 1.09375 3.7265625 C0 2 0 2 0 0 Z " fill="#131313" transform="translate(152,653)"/>
<path d="M0 0 C0.66 0.99 1.32 1.98 2 3 C-0.31 4.98 -2.62 6.96 -5 9 C-5.66 8.67 -6.32 8.34 -7 8 C-4.69 5.36 -2.38 2.72 0 0 Z " fill="#2A2A2A" transform="translate(501,548)"/>
<path d="M0 0 C1.02117475 4.08469898 0.98075877 4.905992 -0.375 8.625 C-0.65085937 9.40101563 -0.92671875 10.17703125 -1.2109375 10.9765625 C-2 13 -2 13 -3 15 C-3.66 14.67 -4.32 14.34 -5 14 C-3.35 9.38 -1.7 4.76 0 0 Z " fill="#515151" transform="translate(1128,403)"/>
<path d="M0 0 C3.465 1.98 3.465 1.98 7 4 C6.34 4.66 5.68 5.32 5 6 C2 5 2 5 -1 3 C-0.67 2.01 -0.34 1.02 0 0 Z " fill="#191919" transform="translate(514,922)"/>
<path d="M0 0 C2.475 0.495 2.475 0.495 5 1 C5 1.99 5 2.98 5 4 C4.01 4.33 3.02 4.66 2 5 C1.34 4.67 0.68 4.34 0 4 C0 2.68 0 1.36 0 0 Z " fill="#0E0E0E" transform="translate(226,851)"/>
<path d="M0 0 C0.33 0.66 0.66 1.32 1 2 C1.66 2 2.32 2 3 2 C2.67 3.65 2.34 5.3 2 7 C1.01 7.33 0.02 7.66 -1 8 C-1.93065133 5.39417629 -2.14917407 4.35801776 -1.0625 1.75 C-0.711875 1.1725 -0.36125 0.595 0 0 Z " fill="#E4E4E4" transform="translate(186,440)"/>
<path d="M0 0 C2 2 2 2 2.1953125 4.6015625 C2.17210937 5.59929687 2.14890625 6.59703125 2.125 7.625 C2.10695313 8.62789063 2.08890625 9.63078125 2.0703125 10.6640625 C2.03550781 11.82035156 2.03550781 11.82035156 2 13 C0.22570854 9.64695124 -0.59593314 6.79822845 -1 3 C-0.67 2.01 -0.34 1.02 0 0 Z " fill="#111111" transform="translate(475,381)"/>
<path d="M0 0 C1.8125 0.1875 1.8125 0.1875 4 1 C5.75 3.5625 5.75 3.5625 7 6 C4 6 4 6 1.8125 4.125 C0 2 0 2 0 0 Z " fill="#121212" transform="translate(447,57)"/>
<path d="M0 0 C0.66 0.99 1.32 1.98 2 3 C-2.455 4.485 -2.455 4.485 -7 6 C-7 5.01 -7 4.02 -7 3 C-4.69 2.01 -2.38 1.02 0 0 Z " fill="#E5E5E5" transform="translate(679,938)"/>
<path d="M0 0 C0.66 0.33 1.32 0.66 2 1 C-0.40436026 4.60654039 -1.94679607 4.85452932 -6 6 C-6.66 5.34 -7.32 4.68 -8 4 C-6.71349294 3.30289269 -5.42059335 2.61757124 -4.125 1.9375 C-3.40570312 1.55464844 -2.68640625 1.17179688 -1.9453125 0.77734375 C-1.30335938 0.52082031 -0.66140625 0.26429688 0 0 Z " fill="#303030" transform="translate(782,670)"/>
<path d="M0 0 C0.33 0.99 0.66 1.98 1 3 C-0.81725675 5.82684384 -2.03937946 7.65310925 -5.25 8.8125 C-5.8275 8.874375 -6.405 8.93625 -7 9 C-6.34 7.68 -5.68 6.36 -5 5 C-4.34 5 -3.68 5 -3 5 C-2.690625 4.360625 -2.38125 3.72125 -2.0625 3.0625 C-1 1 -1 1 0 0 Z " fill="#D0D0D0" transform="translate(253,352)"/>
<path d="M0 0 C2.79872437 2.52788007 4.45773019 4.20411134 5 8 C2.4636387 6.98545548 1.20648539 6.3146444 -0.3125 4 C-0.539375 3.34 -0.76625 2.68 -1 2 C-0.67 1.34 -0.34 0.68 0 0 Z " fill="#111111" transform="translate(187,840)"/>
<path d="M0 0 C1.2065625 0.2475 1.2065625 0.2475 2.4375 0.5 C4.97658116 1.26597109 4.97658116 1.26597109 7 0 C7.99 0.66 8.98 1.32 10 2 C6.7 2.66 3.4 3.32 0 4 C-0.33 3.01 -0.66 2.02 -1 1 C-0.67 0.67 -0.34 0.34 0 0 Z " fill="#DBDBDB" transform="translate(745,681)"/>
<path d="M0 0 C4.42857143 5.14285714 4.42857143 5.14285714 5 9 C4.01 9.495 4.01 9.495 3 10 C3 8.68 3 7.36 3 6 C1.68 5.34 0.36 4.68 -1 4 C-0.67 2.68 -0.34 1.36 0 0 Z " fill="#D3D3D3" transform="translate(481,651)"/>
<path d="M0 0 C1.32 0.33 2.64 0.66 4 1 C1.69 2.65 -0.62 4.3 -3 6 C-3.33 5.01 -3.66 4.02 -4 3 C-2.25 1.4375 -2.25 1.4375 0 0 Z " fill="#DFDFDF" transform="translate(412,632)"/>
<path d="M0 0 C0.33 0.66 0.66 1.32 1 2 C-0.70135776 5.23257974 -2.76039553 8.12050853 -5 11 C-5.66 10.67 -6.32 10.34 -7 10 C-3.535 5.05 -3.535 5.05 0 0 Z " fill="#BFBFBF" transform="translate(457,618)"/>
<path d="M0 0 C0.8125 1.6875 0.8125 1.6875 1 4 C-1.4375 6.75 -1.4375 6.75 -4 9 C-4 5.00095031 -2.27413033 3.19799578 0 0 Z " fill="#CBCBCB" transform="translate(463,609)"/>
<path d="M0 0 C0.33 0 0.66 0 1 0 C1 4.29 1 8.58 1 13 C0.67 13 0.34 13 0 13 C0 10.03 0 7.06 0 4 C-0.99 4.33 -1.98 4.66 -3 5 C-1.125 1.125 -1.125 1.125 0 0 Z " fill="#D4D4D4" transform="translate(473,595)"/>
<path d="M0 0 C2.6875 0.875 2.6875 0.875 5 2 C5 2.33 5 2.66 5 3 C2.03 3.66 -0.94 4.32 -4 5 C-3 2 -3 2 0 0 Z " fill="#191919" transform="translate(94,514)"/>
<path d="M0 0 C0.99 0 1.98 0 3 0 C3 0.99 3 1.98 3 3 C3.99 3.99 4.98 4.98 6 6 C1.545 5.01 1.545 5.01 -3 4 C-1.6875 2 -1.6875 2 0 0 Z " fill="#323232" transform="translate(757,512)"/>
<path d="M0 0 C1.98 0.66 3.96 1.32 6 2 C2.25 5 2.25 5 0 5 C-0.5625 3.0625 -0.5625 3.0625 -1 1 C-0.67 0.67 -0.34 0.34 0 0 Z " fill="#ECECEC" transform="translate(1089,444)"/>
<path d="M0 0 C0.99 0.99 1.98 1.98 3 3 C1.35 4.65 -0.3 6.3 -2 8 C-2.33 7.01 -2.66 6.02 -3 5 C-1.5625 2.3125 -1.5625 2.3125 0 0 Z " fill="#191919" transform="translate(216,391)"/>
<path d="M0 0 C1.32 0.66 2.64 1.32 4 2 C3.67 3.32 3.34 4.64 3 6 C1.68 6.33 0.36 6.66 -1 7 C-1 4.37886292 -0.68707555 2.49064888 0 0 Z " fill="#EEEEEE" transform="translate(1090,329)"/>
<path d="M0 0 C0.66 0.99 1.32 1.98 2 3 C0.02 5.31 -1.96 7.62 -4 10 C-4 5.75354935 -2.18249194 3.61475228 0 0 Z " fill="#383838" transform="translate(461,286)"/>
<path d="M0 0 C0.66 0.4125 1.32 0.825 2 1.25 C2.7425 1.62125 3.485 1.9925 4.25 2.375 C4.8275 2.66375 5.405 2.9525 6 3.25 C3.18185434 4.65907283 1.82722796 3.75872691 -1.125 2.8125 C-2.03507812 2.52503906 -2.94515625 2.23757812 -3.8828125 1.94140625 C-4.58148438 1.71324219 -5.28015625 1.48507813 -6 1.25 C-2.25 -0.84375 -2.25 -0.84375 0 0 Z " fill="#484848" transform="translate(408,29.75)"/>
<path d="M0 0 C2.475 0.495 2.475 0.495 5 1 C5 2.98 5 4.96 5 7 C3.29115995 5.37660195 1.62553283 3.70680947 0 2 C0 1.34 0 0.68 0 0 Z " fill="#E1E1E1" transform="translate(482,889)"/>
<path d="M0 0 C2.875 -0.125 2.875 -0.125 6 0 C8 2 8 2 8 5 C4.62496331 3.8141763 2.35277269 2.72426311 0 0 Z " fill="#D1D1D1" transform="translate(264,877)"/>
<path d="M0 0 C0.99 0.33 1.98 0.66 3 1 C3 1.99 3 2.98 3 4 C4.9375006 6.18777466 4.9375006 6.18777466 7 8 C3.08597051 6.73058503 1.20927127 5.48832306 -1 2 C-0.67 1.34 -0.34 0.68 0 0 Z " fill="#C9C9C9" transform="translate(244,860)"/>
<path d="M0 0 C0.66 0.66 1.32 1.32 2 2 C0.8125 4 0.8125 4 -1 6 C-3.6875 6.25 -3.6875 6.25 -6 6 C-5.34 5.01 -4.68 4.02 -4 3 C-3.34 3 -2.68 3 -2 3 C-2 2.34 -2 1.68 -2 1 C-1.34 0.67 -0.68 0.34 0 0 Z " fill="#1E1E1E" transform="translate(470,690)"/>
<path d="M0 0 C0.99 0 1.98 0 3 0 C3 1.65 3 3.3 3 5 C1.35 5.33 -0.3 5.66 -2 6 C-1.34 4.02 -0.68 2.04 0 0 Z " fill="#E3E3E3" transform="translate(509,584)"/>
<path d="M0 0 C0.99 0 1.98 0 3 0 C3 2.64 3 5.28 3 8 C2.34 7.34 1.68 6.68 1 6 C1 5.01 1 4.02 1 3 C0.34 3 -0.32 3 -1 3 C-0.67 2.01 -0.34 1.02 0 0 Z " fill="#292929" transform="translate(482,361)"/>
<path d="M0 0 C1.98 0 3.96 0 6 0 C6 0.99 6 1.98 6 3 C4.02 3.66 2.04 4.32 0 5 C0 3.35 0 1.7 0 0 Z " fill="#E2E2E2" transform="translate(184,875)"/>
<path d="M0 0 C0.66 0.33 1.32 0.66 2 1 C-0.9465385 2.80066242 -3.88801935 4.50163895 -7 6 C-7.66 5.34 -8.32 4.68 -9 4 C-7.54618103 3.30300448 -6.08677047 2.61766134 -4.625 1.9375 C-3.40683594 1.36322266 -3.40683594 1.36322266 -2.1640625 0.77734375 C-1.44992188 0.52082031 -0.73578125 0.26429688 0 0 Z " fill="#383838" transform="translate(197,874)"/>
<path d="M0 0 C-0.33 0.99 -0.66 1.98 -1 3 C-3.31 2.67 -5.62 2.34 -8 2 C-6.14210462 -1.71579076 -3.44525918 -1.06921837 0 0 Z " fill="#121212" transform="translate(720,852)"/>
<path d="M0 0 C2.64 0 5.28 0 8 0 C7.67 1.32 7.34 2.64 7 4 C4.97954558 3.39816251 2.97888961 2.72693904 1 2 C0.67 1.34 0.34 0.68 0 0 Z " fill="#2D2D2D" transform="translate(499,836)"/>
<path d="M0 0 C2.91517292 1.07401108 4.77810176 1.77810176 7 4 C6.01 4.66 5.02 5.32 4 6 C0 1.125 0 1.125 0 0 Z " fill="#E5E5E5" transform="translate(512,648)"/>
<path d="M0 0 C0.66 0.33 1.32 0.66 2 1 C-1.465 3.97 -1.465 3.97 -5 7 C-5.66 6.67 -6.32 6.34 -7 6 C-4.69 4.02 -2.38 2.04 0 0 Z " fill="#C8C8C8" transform="translate(529,561)"/>
<path d="M0 0 C0 0.33 0 0.66 0 1 C-1.65 1.33 -3.3 1.66 -5 2 C-4.67 2.66 -4.34 3.32 -4 4 C-5.32 4 -6.64 4 -8 4 C-8 3.34 -8 2.68 -8 2 C-8.66 1.67 -9.32 1.34 -10 1 C-6.78548731 -0.60725635 -3.56387464 -0.05748185 0 0 Z " fill="#262626" transform="translate(790,483)"/>
<path d="M0 0 C0.66 0.99 1.32 1.98 2 3 C-0.40339772 5.76390737 -1.16263678 6.04065919 -5 7 C-3.35 4.69 -1.7 2.38 0 0 Z " fill="#D8D8D8" transform="translate(245,361)"/>
<path d="M0 0 C1.10844919 3.32534757 0.84454356 5.62182575 0 9 C0.66 9.33 1.32 9.66 2 10 C0.02 10.99 0.02 10.99 -2 12 C-1.85831863 10.56208484 -1.71148957 9.1246763 -1.5625 7.6875 C-1.48128906 6.88699219 -1.40007812 6.08648437 -1.31640625 5.26171875 C-1 3 -1 3 0 0 Z " fill="#A7A7A7" transform="translate(348,186)"/>
<path d="M0 0 C0.625 1.8125 0.625 1.8125 1 4 C0.01 5.485 0.01 5.485 -1 7 C-1.66 7 -2.32 7 -3 7 C-2.25 2.25 -2.25 2.25 0 0 Z " fill="#202020" transform="translate(710,919)"/>
<path d="M0 0 C1.9375 0.625 1.9375 0.625 4 2 C4.75 5.125 4.75 5.125 5 8 C4.01 8 3.02 8 2 8 C1.34 5.36 0.68 2.72 0 0 Z " fill="#181818" transform="translate(472,919)"/>
<path d="M0 0 C1.32 0.33 2.64 0.66 4 1 C2.92598892 3.91517292 2.22189824 5.77810176 0 8 C0 5.36 0 2.72 0 0 Z " fill="#E4E4E4" transform="translate(715,904)"/>
<path d="M0 0 C2.2477975 2.05233685 3.0022242 3.00667261 4 6 C2.35 6.66 0.7 7.32 -1 8 C-0.67 5.36 -0.34 2.72 0 0 Z " fill="#141414" transform="translate(475,880)"/>
<path d="M0 0 C1.65 0.33 3.3 0.66 5 1 C5.33 1.99 5.66 2.98 6 4 C3.69 3.67 1.38 3.34 -1 3 C-0.67 2.01 -0.34 1.02 0 0 Z " fill="#DADADA" transform="translate(147,876)"/>
<path d="M0 0 C3 3.75 3 3.75 3 6 C1.35 6.33 -0.3 6.66 -2 7 C-1.42415568 4.61435923 -0.77772405 2.33317216 0 0 Z " fill="#282828" transform="translate(68,803)"/>
<path d="M0 0 C0.8125 1.6875 0.8125 1.6875 1 4 C-1.4375 6.75 -1.4375 6.75 -4 9 C-2.94124926 5.59687262 -1.99097846 2.98646769 0 0 Z " fill="#2D2D2D" transform="translate(458,703)"/>
<path d="M0 0 C2.64 0.33 5.28 0.66 8 1 C6.68 1.99 5.36 2.98 4 4 C2.68 3.34 1.36 2.68 0 2 C0 1.34 0 0.68 0 0 Z " fill="#222222" transform="translate(602,691)"/>
<path d="M0 0 C0.33 0.66 0.66 1.32 1 2 C1.66 2.33 2.32 2.66 3 3 C0.75 4.125 0.75 4.125 -2 5 C-4.3125 4.125 -4.3125 4.125 -6 3 C-4.02 2.67 -2.04 2.34 0 2 C0 1.34 0 0.68 0 0 Z " fill="#1B1B1B" transform="translate(497,673)"/>
<path d="M0 0 C0.66 0 1.32 0 2 0 C1.375 1.875 1.375 1.875 0 4 C-3.125 5.25 -3.125 5.25 -6 6 C-4 4 -2 2 0 0 Z " fill="#2A2A2A" transform="translate(413,634)"/>
<path d="M0 0 C-0.33 0.99 -0.66 1.98 -1 3 C-3.97 2.67 -6.94 2.34 -10 2 C-10 1.67 -10 1.34 -10 1 C-6.56484998 0.37542727 -3.50935186 0 0 0 Z " fill="#404040" transform="translate(558,524)"/>
<path d="M0 0 C0.33 0.66 0.66 1.32 1 2 C-0.1875 4.5625 -0.1875 4.5625 -2 7 C-3.32 7.33 -4.64 7.66 -6 8 C-4.02 5.36 -2.04 2.72 0 0 Z " fill="#D8D8D8" transform="translate(270,332)"/>
<path d="M0 0 C2.50037734 2.17424117 3.43628586 3.73045798 4 7 C2.68 7 1.36 7 0 7 C-1.33332095 4.3333581 -0.67102033 2.83319697 0 0 Z " fill="#D6D6D6" transform="translate(465,82)"/>
<path d="M0 0 C0.66 0.33 1.32 0.66 2 1 C1.34 2.65 0.68 4.3 0 6 C-0.99 6 -1.98 6 -3 6 C-1.125 1.125 -1.125 1.125 0 0 Z " fill="#E7E7E7" transform="translate(364,42)"/>
</svg>
